<svg width="500" height="500" xmlns="http://www.w3.org/2000/svg">
 <style type="text/css">.st0{fill:#5C8DBC;}
	.st1{fill:#1A4674;}
	.st2{fill:#1B598E;}
	.st3{fill:#FFFFFF;}</style>

 <g>
  <title>background</title>
  <rect fill="none" id="canvas_background" height="402" width="582" y="-1" x="-1"/>
 </g>
 <g>
  <title>Layer 1</title>
  <g id="XMLID_1_">
   <path d="m412.399994,174.800003c0,-6.100006 -1.299988,-11.600006 -4,-16.199997c-2.600006,-4.600006 -6.5,-8.400009 -11.700012,-11.400009c-43.199982,-24.899994 -86.5,-49.799995 -129.699982,-74.699989c-11.699997,-6.700005 -22.900009,-6.5 -34.5,0.299995c-17.199997,10.100006 -103.400009,59.5 -129,74.400009c-10.600006,6.099991 -15.700005,15.5 -15.700005,27.699997c0,50.099991 0,100.300003 0,150.399979c0,6 1.300003,11.300018 3.800003,15.900024c2.599998,4.699982 6.599998,8.699982 11.900002,11.799988c25.699997,14.899994 111.800003,64.200012 129,74.399994c11.599991,6.800018 22.899994,7.100006 34.5,0.300018c43.200012,-25 86.5,-49.800018 129.699982,-74.700012c5.400024,-3.100006 9.300018,-7 11.900024,-11.799988c2.5,-4.600006 3.799988,-9.899994 3.799988,-15.899994c0,-0.100006 0,-100.400024 0,-150.500015" class="st0" id="XMLID_3_"/>
   <path d="m250.5,249.5l-159.099998,91.600006c2.599998,4.700012 6.599998,8.700012 11.900002,11.799988c25.699997,14.900024 111.800003,64.200012 129,74.400024c11.600006,6.799988 22.899994,7.099976 34.499985,0.299988c43.200012,-25 86.5,-49.799988 129.700012,-74.699982c5.399994,-3.100006 9.299988,-7 11.899994,-11.800018l-157.899994,-91.600006" class="st1" id="XMLID_4_"/>
   <path d="m203.399994,276.600006c9.300003,16.200012 26.699997,27.100006 46.599991,27.100006c20.100021,0 37.600021,-11 46.800003,-27.399994l-46.300003,-26.800003l-47.099991,27.099991" class="st1" id="XMLID_5_"/>
   <path d="m412.399994,174.800003c0,-6.100006 -1.299988,-11.600006 -4,-16.199997l-157.899994,90.899994l158.100006,91.600006c2.5,-4.600006 3.799988,-9.899994 3.799988,-15.899994c0,0 0,-100.300018 0,-150.400009" class="st2" id="XMLID_6_"/>
   <rect id="svg_1" height="549" width="673" y="-15.5" x="-26.5" stroke-opacity="null" stroke-width="1.5" stroke="#000" fill="#005fbf"/>
   <polyline points="403.7,256.1 391.3,256.1 391.3,268.4 379,268.4 379,256.1 366.6,256.1 366.6,243.7    379,243.7 379,231.4 391.3,231.4 391.3,243.7 403.7,243.7 403.7,256.1  " class="st3" id="XMLID_7_"/>
   <polyline points="358.6,256.1 346.2,256.1 346.2,268.4 333.9,268.4 333.9,256.1 321.5,256.1    321.5,243.7 333.9,243.7 333.9,231.4 346.2,231.4 346.2,243.7 358.6,243.7 358.6,256.1  " class="st3" id="XMLID_8_"/>
   <path d="m296.799988,276.299988c-9.200012,16.299988 -26.700012,27.399994 -46.800003,27.399994c-20,0 -37.399994,-10.899994 -46.599991,-27.100006c-4.5,-7.899994 -7.100006,-16.899994 -7.100006,-26.599991c0,-29.699997 24,-53.699997 53.699997,-53.699997c19.800003,0 37.099991,10.800003 46.400009,26.800003l46.899994,-27c-18.699982,-32.200012 -53.5,-53.900009 -93.399994,-53.900009c-59.600006,0 -107.800003,48.300003 -107.800003,107.800003c0,19.500015 5.199997,37.900009 14.300003,53.699997c18.600006,32.300018 53.600006,54.100006 93.600006,54.100006c40.100006,0 75.100006,-21.899994 93.700012,-54.399994l-46.900024,-27.100006" class="st3" id="XMLID_9_"/>
  </g>
 </g>
</svg>