<svg width="500" height="500" viewBox="0 0 500 500" fill="none" xmlns="http://www.w3.org/2000/svg">
<rect width="500" height="500" fill="#E5E5E5"/>
<rect id="Rectangle 1" width="500" height="500" fill="#4EADDD" fill-opacity="0.1"/>
<g id="Group 1">
<g id="Group">
<g id="Group_2">
<g id="Group_3">
<path id="Vector" d="M97.8314 308.339L162.555 243.601H115.493L74.3077 284.8L97.8314 308.339Z" fill="#39CEFD"/>
</g>
</g>
<g id="Group_4">
<path id="Vector_2" d="M39 249.493L115.493 173H162.555L62.5384 273.031L39 249.493Z" fill="#39CEFD"/>
</g>
<g id="Group_5">
<path id="Vector_3" d="M115.493 325.985H162.555L121.37 284.8L97.8313 308.339L115.493 325.985Z" fill="#03569B"/>
</g>
<g id="Group_6">
<path id="Vector_4" d="M121.37 284.8L97.8313 308.339L132.741 296.245L121.37 284.8Z" fill="url(#paint0_linear)"/>
</g>
<g id="Group_7">
<g id="Group_8">
<path id="Vector_5" d="M74.3077 284.786L97.8461 261.247L121.385 284.786L97.8461 308.339L74.3077 284.786Z" fill="#16B9FD"/>
</g>
</g>
<path id="Vector_6" d="M162.555 243.601L121.37 284.8L162.555 326H115.493L97.8313 308.339L74.2929 284.8L115.493 243.601H162.555ZM115.493 173L39 249.493L62.5384 273.031L162.555 173H115.493V173Z" fill="url(#paint1_radial)"/>
</g>
<g id="Group_9">
<path id="Vector_7" d="M177.458 214.01H218.705V221.867H186.1V246.222H215.562V254.079H186.1V284.72H177.851V214.01H177.458Z" fill="#808080"/>
<path id="Vector_8" d="M228.526 214.01H236.775V285.113H228.526V214.01Z" fill="#808080"/>
<path id="Vector_9" d="M267.809 286.684C261.524 286.684 257.202 284.72 253.667 281.184C250.524 277.649 248.953 272.542 248.953 266.257V234.437H257.202V265.078C257.202 269.792 258.381 273.328 260.345 275.685C262.702 278.042 265.452 279.22 269.38 279.22C272.13 279.22 274.88 278.435 276.844 276.863C279.201 275.292 280.772 273.328 281.951 270.971C283.129 268.614 283.915 265.864 283.915 263.114V234.437H292.164V285.113H284.308V277.649H283.915C282.344 280.006 280.379 282.363 277.237 283.934C274.487 285.898 271.344 286.684 267.809 286.684Z" fill="#808080"/>
<path id="Vector_10" d="M325.162 285.898C323.198 285.898 321.234 285.506 319.27 284.72C317.698 283.934 316.127 283.149 314.949 281.97C313.77 280.792 312.592 279.22 311.806 277.649C311.02 276.078 310.627 274.113 310.627 271.756V241.901H301.592V234.437H310.627V220.296H318.877V234.437H331.055V241.901H318.877V269.399C318.877 272.149 319.27 274.113 320.448 275.685C321.627 277.256 323.591 278.042 325.948 278.042C327.912 278.042 329.876 277.649 331.447 276.47V284.72C330.269 285.113 329.483 285.506 328.305 285.898C328.305 285.898 326.733 285.898 325.162 285.898Z" fill="#808080"/>
<path id="Vector_11" d="M360.91 285.898C358.946 285.898 356.981 285.506 355.017 284.72C353.446 283.934 351.875 283.149 350.696 281.97C349.518 280.792 348.339 279.22 347.553 277.649C346.768 276.078 346.375 274.113 346.375 271.756V241.901H338.126V234.437H347.161V220.296H355.41V234.437H367.588V241.901H355.41V269.399C355.41 272.149 355.803 274.113 356.981 275.685C358.16 277.256 360.124 278.042 362.481 278.042C364.445 278.042 366.409 277.649 367.981 276.47V284.72C366.802 285.113 366.017 285.506 364.838 285.898C364.052 285.898 362.481 285.898 360.91 285.898Z" fill="#808080"/>
<path id="Vector_12" d="M398.229 286.684C393.515 286.684 389.194 285.505 385.265 283.148C381.337 280.791 378.587 277.649 376.23 273.721C374.266 269.792 373.087 265.078 373.087 259.971C373.087 255.257 374.266 250.543 376.23 246.615C378.194 242.687 381.337 239.151 384.872 236.794C388.408 234.437 392.729 233.259 397.836 233.259C402.943 233.259 407.264 234.437 410.799 236.794C414.335 239.151 417.085 241.901 419.049 245.83C421.013 249.758 422.191 254.079 422.191 259.186C422.191 260.364 422.191 261.15 421.799 261.936H381.337C381.73 265.864 382.515 269.007 384.087 271.756C385.658 274.506 388.015 276.47 390.372 277.649C393.122 278.827 395.479 279.613 398.229 279.613C404.907 279.613 409.621 276.47 413.156 270.578L420.227 274.113C417.87 278.042 415.12 281.577 411.192 283.934C408.049 285.505 403.728 286.684 398.229 286.684ZM412.763 254.472C412.763 252.508 411.978 250.151 410.799 248.187C409.621 246.222 408.049 244.258 405.692 242.687C403.335 241.116 400.586 240.33 397.05 240.33C393.122 240.33 389.586 241.508 386.837 244.258C384.087 246.615 382.515 250.151 381.337 254.472H412.763Z" fill="#808080"/>
<path id="Vector_13" d="M431.619 234.437H439.476V242.687H439.869C441.047 239.937 442.619 237.58 445.761 236.009C448.511 234.045 451.654 233.259 454.796 233.259C457.153 233.259 459.117 233.652 460.689 234.437V243.473C458.725 242.294 456.368 241.901 453.618 241.901C451.261 241.901 448.904 242.687 446.94 243.865C444.976 245.437 443.404 247.008 441.833 249.365C440.654 251.722 439.869 254.079 439.869 256.829V285.113H431.619V234.437Z" fill="#808080"/>
</g>
</g>
<defs>
<linearGradient id="paint0_linear" x1="-3653.43" y1="-1480.98" x2="-3652.75" y2="-1481.66" gradientUnits="userSpaceOnUse">
<stop stop-color="#1A237E" stop-opacity="0.4"/>
<stop offset="1" stop-color="#1A237E" stop-opacity="0"/>
</linearGradient>
<radialGradient id="paint1_radial" cx="0" cy="0" r="1" gradientUnits="userSpaceOnUse" gradientTransform="translate(-3335.69 -1203.16) scale(7.26602)">
<stop stop-color="white" stop-opacity="0.1"/>
<stop offset="1" stop-color="white" stop-opacity="0"/>
</radialGradient>
</defs>
</svg>
