<svg width="500" height="500" xmlns="http://www.w3.org/2000/svg">
 <style type="text/css">.st0{fill:#9A4993;}
	.st1{fill:#6A1577;}
	.st2{fill:#813084;}
	.st3{fill:#FFFFFF;}</style>

 <g>
  <title>background</title>
  <rect x="-1" y="-1" width="502" height="502" id="canvas_background" fill="none"/>
 </g>
 <g>
  <title>Layer 1</title>
  <path id="XMLID_3_" class="st0" d="m412.399994,174.800003c0,-6.100006 -1.299988,-11.600006 -4,-16.199997c-2.600006,-4.600006 -6.5,-8.400009 -11.700012,-11.400009c-43.199982,-24.899994 -86.5,-49.799995 -129.699982,-74.699989c-11.699997,-6.700005 -22.900009,-6.5 -34.5,0.299995c-17.199997,10.100006 -103.400009,59.5 -129,74.400009c-10.600006,6.099991 -15.700005,15.5 -15.700005,27.699997c0,50.099991 0,100.300003 0,150.399979c0,6 1.300003,11.300018 3.800003,15.900024c2.599998,4.699982 6.599998,8.699982 11.900002,11.799988c25.699997,14.899994 111.800003,64.200012 129,74.399994c11.599991,6.800018 22.899994,7.100006 34.5,0.300018c43.200012,-25 86.5,-49.800018 129.699982,-74.700012c5.400024,-3.100006 9.300018,-7 11.900024,-11.799988c2.5,-4.600006 3.799988,-9.899994 3.799988,-15.899994c0,-0.100006 0,-100.400024 0,-150.500015"/>
  <path id="XMLID_4_" class="st1" d="m250.5,249.5l-159.099991,91.600006c2.599998,4.700012 6.599998,8.700012 11.900002,11.799988c25.700005,14.900024 111.800011,64.200012 129.000008,74.400024c11.600006,6.799988 22.899994,7.099976 34.499969,0.299988c43.200012,-25 86.5,-49.799988 129.700012,-74.699982c5.399994,-3.100006 9.299988,-7 11.899994,-11.800018l-157.899979,-91.600006"/>
  <path id="XMLID_5_" class="st1" d="m203.399994,276.600006c9.300003,16.200012 26.699997,27.100006 46.599991,27.100006c20.100021,0 37.600021,-11 46.800003,-27.399994l-46.300003,-26.800003l-47.099991,27.099991"/>
  <path id="XMLID_6_" class="st2" d="m412.399994,174.800003c0,-6.100006 -1.299988,-11.600006 -4,-16.199997l-157.899994,90.899994l158.100006,91.600006c2.5,-4.600006 3.799988,-9.899994 3.799988,-15.899994c0,0 0,-100.300018 0,-150.400009"/>
  <rect fill="#0a2633" stroke="#000" stroke-width="1.5" stroke-opacity="null" x="-25.5" y="-10.5" width="545" height="529" id="svg_1"/>
  <!-- Created with Method Draw - http://github.com/duopixel/Method-Draw/ -->
  <!-- Created with Method Draw - http://github.com/duopixel/Method-Draw/ -->
  <g id="svg_131">
   <g transform="matrix(0.973575, 0, 0, 0.973575, -577.133, -615.388)" id="svg_130">
    <title stroke="#0a2633">Layer 1</title>
    <rect fill="#0a2633" stroke="#0a2633" stroke-width="1.5" x="545.537737" y="663.6777" width="636" height="449" id="svg_124"/>
    <g id="svg_98">
     <g id="svg_121" transform="matrix(0.600148, 0, 0, 0.600148, -372.821, -268.327)">
      <path stroke="#0a2633" d="m2022.564209,1728.55188c-23.657959,16.638916 -50.471069,35.498047 -64.838257,66.698975c-24.953857,54.435059 51.062134,113.812012 54.311157,116.312988c0.755127,0.581055 1.658936,0.871094 2.560059,0.871094c0.957031,0 1.915039,-0.327148 2.692871,-0.979004c1.509033,-1.262085 1.937012,-3.406006 1.031006,-5.1521c-0.274902,-0.530029 -27.560913,-53.530029 -26.546997,-91.552002c0.358887,-13.24292 18.892212,-28.265991 38.512085,-44.170898c17.969971,-14.568115 38.340088,-31.079102 50.258057,-50.394043c26.164063,-42.516113 -2.916016,-84.322021 -3.213135,-84.73999c-1.154785,-1.62207 -3.286865,-2.208984 -5.109863,-1.410034c-1.821045,0.804077 -2.830078,2.773071 -2.414063,4.719971c0.059082,0.276978 5.714111,27.922974 -10.021973,56.406006c-6.481934,11.77002 -20.726074,21.787964 -37.220947,33.389038z" fill="#ff7f00" id="svg_123"/>
      <path stroke="#0a2633" d="m2122.237061,1747.299927c1.669189,-1.25708 2.15918,-3.550049 1.150146,-5.380127c-1.010986,-1.829956 -3.211182,-2.636963 -5.165039,-1.89502c-4.019043,1.528076 -98.416016,37.915039 -98.416016,81.880127c0,30.306885 12.946045,46.316895 22.398926,58.009033c3.708008,4.585938 6.908936,8.545898 7.964111,11.927002c2.969971,9.74292 -4.066162,27.352905 -7.025146,33.316895c-0.853027,1.714111 -0.434814,3.791992 1.016113,5.043945c0.783936,0.677002 1.762939,1.020996 2.74292,1.020996c0.833984,0 1.672119,-0.247925 2.395996,-0.751953c1.623047,-1.12793 39.666992,-28.025879 32.843994,-60.432983c-2.541992,-12.317993 -8.594971,-21.317993 -13.936035,-29.259888c-8.273926,-12.305176 -14.25,-21.193115 -5.183838,-37.609131c10.62207,-19.147949 58.727051,-55.504883 59.213867,-55.868896z" fill="#ff7f00" id="svg_122"/>
     </g>
     <g id="svg_114" transform="matrix(0.600148, 0, 0, 0.600148, -372.821, -268.327)">
      <path stroke="#0a2633" d="m1876.517944,1931.918823c-1.61792,4.844971 -0.85376,9.651123 2.207031,13.903076c10.233154,14.207031 46.47998,22.029053 102.068115,22.029053c0.00293,0 0.004883,0 0.006836,0c7.531982,0 15.484131,-0.148193 23.629272,-0.440186c88.875,-3.180908 121.838867,-30.868896 123.198975,-32.045898c1.481934,-1.282959 1.87793,-3.418945 0.957031,-5.146973c-0.922119,-1.727051 -2.90918,-2.594971 -4.808105,-2.072021c-31.301025,8.545898 -89.748047,11.580078 -130.287964,11.580078c-45.363037,0 -68.465088,-3.268066 -74.121094,-5.681152c2.9021,-3.984863 20.802002,-11.100952 42.98291,-15.463867c2.120117,-0.416016 3.577148,-2.374023 3.367188,-4.52417s-2.016113,-3.789917 -4.177002,-3.789917c-13.002197,0.000122 -78.207031,1.044067 -85.023193,21.651978z" fill="#005fbf" id="svg_120"/>
      <path stroke="#0a2633" d="m2173.912109,1903.400757c-18.331055,0 -35.713867,9.187988 -36.446045,9.577148c-1.694824,0.907959 -2.554932,2.852051 -2.089844,4.719971c0.467041,1.86499 2.144043,3.176025 4.066895,3.177979c0.38916,0 39.102051,0.316895 42.608154,22.436035c3.105957,19.082031 -36.62915,50 -52.202148,60.303955c-1.681885,1.113037 -2.334961,3.262939 -1.553955,5.123047c0.665039,1.583008 2.206055,2.572998 3.86792,2.572998c0.290039,0 0.583984,-0.030029 0.875977,-0.092041c3.696045,-0.791016 90.406006,-19.898926 81.238037,-70.384033c-5.593018,-30.939941 -25.039063,-37.435059 -40.36499,-37.435059z" fill="#005fbf" id="svg_119"/>
      <path stroke="#0a2633" d="m2114.447021,1997.437866c0.302002,-1.616943 -0.37085,-3.261963 -1.716797,-4.207031l-20.791016,-14.562988c-1.01416,-0.709961 -2.295166,-0.932983 -3.485107,-0.61792c-0.217041,0.054932 -21.958984,5.770996 -53.524902,9.275879c-12.528076,1.405029 -26.560059,2.146973 -40.582153,2.146973c-31.558105,0 -52.192139,-3.708008 -55.197021,-6.427979c-0.397949,-0.763916 -0.271973,-1.11084 -0.200928,-1.303955c0.545898,-1.518066 3.471924,-3.322021 5.35791,-4.035889c2.083008,-0.770996 3.206055,-3.033081 2.558105,-5.156982c-0.645996,-2.127197 -2.837158,-3.378174 -4.999023,-2.859131c-20.855957,5.032959 -31.053955,12.071045 -30.312012,20.917969c1.317871,15.686035 37.649902,23.737061 68.36499,25.86499c4.416992,0.302002 9.193848,0.455078 14.194824,0.455078c0.003174,0 0.005127,0 0.008057,0c51.074097,0 116.550171,-16.024902 117.204224,-16.187988c1.598877,-0.390137 2.817871,-1.68103 3.12085,-3.301025z" fill="#005fbf" id="svg_118"/>
      <path stroke="#0a2633" d="m1957.702026,2031.101929c1.574951,-1.024048 2.272949,-2.971069 1.714111,-4.76416c-0.557129,-1.792969 -2.234131,-2.970947 -4.118164,-2.945801c-2.794922,0.073975 -27.348877,1.181885 -29.067871,16.814941c-0.52002,4.671875 0.817871,8.940796 3.979004,12.685913c8.815918,10.448242 32.614014,16.658203 72.741089,18.984131c4.74707,0.284912 9.568848,0.427979 14.333984,0.427979c51.014893,0 85.373047,-15.9729 86.812012,-16.652832c1.39502,-0.660156 2.314941,-2.03125 2.396973,-3.571289s-0.687012,-3.000977 -2.00293,-3.806152l-26.275146,-16.039795c-0.911865,-0.55603 -2.00293,-0.73999 -3.042969,-0.526978c-0.166016,0.034912 -16.848877,3.494873 -42.025879,6.913086c-4.76416,0.647949 -10.72998,0.976807 -17.72998,0.976807c-25.150269,0 -53.124146,-4.108887 -58.489136,-6.799927c-0.078125,-0.502075 0.020996,-1.140015 0.774902,-1.695923z" fill="#005fbf" id="svg_117"/>
      <path stroke="#0a2633" d="m1993.507935,2120.532959c116.854126,-0.098877 179.571167,-20.879883 191.653198,-33.957031c4.2771,-4.625977 4.739014,-9.005859 4.375977,-11.866943c-0.897949,-7.040039 -7.311035,-11.350098 -8.038086,-11.818115c-1.753906,-1.12793 -4.10791,-0.833008 -5.47583,0.745117c-1.36499,1.577881 -1.396973,3.884033 -0.0271,5.460938c0.737061,0.947998 1.163086,2.535156 -0.991943,4.692139c-4.830078,4.510986 -53.544922,18.203857 -134.656006,22.317871c-11.111084,0.577148 -22.764893,0.871094 -34.635986,0.873047c-72.623169,0 -125.772095,-9.947998 -132.749146,-15.743896c2.688965,-3.864014 21.489014,-10.037109 41.481934,-13.529053c2.253174,-0.393066 3.775146,-2.516113 3.426025,-4.776123c-0.348877,-2.259033 -2.431885,-3.813965 -4.708984,-3.519043c-0.563965,0.077148 -2.478027,0.191162 -4.693848,0.327148c-32.988037,2.013916 -71.109131,6.50293 -73.098145,23.5c-0.604004,5.178955 0.935059,9.881104 4.576172,13.9729c8.908936,10.01001 34.515869,23.319092 153.557861,23.319092c0.001953,0.001953 0.001953,0.001953 0.003906,0.001953z" fill="#005fbf" id="svg_116"/>
      <path stroke="#0a2633" d="m2208.113037,2090.260986c-1.651855,-0.763916 -3.604004,-0.37793 -4.835938,0.951904c-0.170898,0.185059 -17.73999,18.556152 -70.563965,29.343994c-20.2229,4.052002 -58.183105,6.107178 -112.825928,6.107178c-54.745239,0 -106.838257,-2.154297 -107.357056,-2.17627c-2.176025,-0.105957 -4.037109,1.476074 -4.333008,3.618164c-0.297119,2.140137 1.083008,4.157959 3.183838,4.657959c0.541992,0.128174 55.13501,12.917969 129.779175,12.917969c35.801025,0 70.638916,-2.906982 103.548096,-8.644775c61.36084,-10.757324 65.656982,-41.183105 65.809814,-42.473145c0.214111,-1.802979 -0.755859,-3.539063 -2.405029,-4.302979z" fill="#005fbf" id="svg_115"/>
     </g>
     <g id="svg_113" transform="matrix(0.600148, 0, 0, 0.600148, -372.821, -268.327)"/>
     <g id="svg_112" transform="matrix(0.600148, 0, 0, 0.600148, -372.821, -268.327)"/>
     <g id="svg_111" transform="matrix(0.600148, 0, 0, 0.600148, -372.821, -268.327)"/>
     <g id="svg_110" transform="matrix(0.600148, 0, 0, 0.600148, -372.821, -268.327)"/>
     <g id="svg_109" transform="matrix(0.600148, 0, 0, 0.600148, -372.821, -268.327)"/>
     <g id="svg_108" transform="matrix(0.600148, 0, 0, 0.600148, -372.821, -268.327)"/>
     <g id="svg_107" transform="matrix(0.600148, 0, 0, 0.600148, -372.821, -268.327)"/>
     <g id="svg_106" transform="matrix(0.600148, 0, 0, 0.600148, -372.821, -268.327)"/>
     <g id="svg_105" transform="matrix(0.600148, 0, 0, 0.600148, -372.821, -268.327)"/>
     <g id="svg_104" transform="matrix(0.600148, 0, 0, 0.600148, -372.821, -268.327)"/>
     <g id="svg_103" transform="matrix(0.600148, 0, 0, 0.600148, -372.821, -268.327)"/>
     <g id="svg_102" transform="matrix(0.600148, 0, 0, 0.600148, -372.821, -268.327)"/>
     <g id="svg_101" transform="matrix(0.600148, 0, 0, 0.600148, -372.821, -268.327)"/>
     <g id="svg_100" transform="matrix(0.600148, 0, 0, 0.600148, -372.821, -268.327)"/>
     <g id="svg_99" transform="matrix(0.600148, 0, 0, 0.600148, -372.821, -268.327)"/>
    </g>
   </g>
  </g>
 </g>
</svg>